<?xml version="1.0" standalone="no"?><!DOCTYPE svg PUBLIC "-//W3C//DTD SVG 1.1//EN" "http://www.w3.org/Graphics/SVG/1.1/DTD/svg11.dtd"><svg t="1558342743451" class="icon" style="" viewBox="0 0 1024 1024" version="1.1" xmlns="http://www.w3.org/2000/svg" p-id="2322" xmlns:xlink="http://www.w3.org/1999/xlink" width="48" height="48"><defs><style type="text/css"></style></defs><path d="M128 298.666667h768a42.666667 42.666667 0 0 0 0-85.333334H128a42.666667 42.666667 0 0 0 0 85.333334z m0 170.666666h426.666667a42.666667 42.666667 0 0 0 0-85.333333H128a42.666667 42.666667 0 0 0 0 85.333333z m800.853333-55.893333a42.666667 42.666667 0 0 0-60.16-5.12l-85.333333 70.826667a42.666667 42.666667 0 0 0 0 65.706666l85.333333 70.826667a42.666667 42.666667 0 0 0 27.306667 10.24 42.666667 42.666667 0 0 0 32.853333-15.36 42.666667 42.666667 0 0 0-5.546666-60.16l-46.08-38.4 46.08-38.4a42.666667 42.666667 0 0 0 5.546666-60.16zM896 725.333333H128a42.666667 42.666667 0 0 0 0 85.333334h768a42.666667 42.666667 0 0 0 0-85.333334zM128 640h426.666667a42.666667 42.666667 0 0 0 0-85.333333H128a42.666667 42.666667 0 0 0 0 85.333333z" p-id="2323"></path></svg>